<svg xmlns="http://www.w3.org/2000/svg" xmlns:xlink="http://www.w3.org/1999/xlink" viewBox="0 0 1500 500"><defs><style>.cls-1,.cls-3,.cls-4,.cls-7{fill:none;}.cls-2{clip-path:url(#clip-path);}.cls-3{stroke:#cdd0d2;}.cls-3,.cls-4,.cls-7{stroke-miterlimit:10;}.cls-4{stroke:#f5f5f6;}.cls-5{clip-path:url(#clip-path-2);}.cls-6{fill:#fff;}.cls-7{stroke:#9ba2a6;}</style><clipPath id="clip-path"><rect class="cls-1" width="1500" height="499.51"/></clipPath><clipPath id="clip-path-2"><path class="cls-1" d="M1372.5,200.49H1368V207l-4.55,1.93-12.6-5.23-.09-6.18h-4.25l0,6.09-171.24,74.72-3.07-88,13.5-24s-1.12-1.12-8.8-1.68l-.37-4.65-.54-.34c4.74-.25,7.92-.71,7.92-1.22s-5.13-1.22-12.12-1.38l-.09-.05-.44-3.94c5.93-.2,10.27-.85,10.27-1.62s-4.52-1.44-10.63-1.63l0-.31-1.33-3-1-20.67-1.33-1.17V104H1166s-.17,20.17,0,20.67-1.83,1.17-1.83,1.17v20.67l-2,3.17v.2c-5.29.25-9,.86-9,1.57s3.75,1.33,9,1.57v4.06c-6.63.19-11.42.73-11.42,1.37s3,1,7.58,1.21l-1.66.86v4.24c-7.86.75-9,2.26-9,2.26l14.5,23.33-1.78,94.45-33.63,14.68V278.11l-3.62-1.75h-41l-2.75.75s-3.87,4.13-3.87,4.5V318h-.5l-23,2.5-11.5-.25H1035l-2.62-1.21V300.74l-9.75-.25V289.11l-3.62-.25-.37-2.75H995.75l-.87.75L984.5,287l-.5,2.5-1,.38V300l-9.25.75V324h-5.5l-3.58,1.19V300.65H951l-1.5-.83h-9l-1.67.83h-18l-2.33,1.5v21.08H912l-2.25,1.5L908.5,323l-18-.5-3-7.5H885l-1.75,7.5-3-1.5H873.5v2.75h-4.75l-18,.5-11-2.5-12.75,3L821.75,323l-9.25-10.5h-17l-14.5-3-16.5.5-3.25-.11V243.74l-1.87-1.62h-7.62v-7.5h-7.5l-1.37-6.5h-6.5L734.62,237H721.87s.38,5,0,5h-10.5v67h-10V278.36h-6l-.75-1.75h-3.25l-.37,1.75h-6.87l-3.62,2.5V309h-1l-6.5-4.5H659.5l-3-3-15-.5-9.5,9.5-28,1-3-7.5H582.5v-6.5L575,295l-58,1.5v8h-3V318l-35-1.5L469,310l-50.5-3-.77-.16v-2a.93.93,0,0,0-.18-.53q.64-2.5,1.12-5.06a1,1,0,0,0,.87-.94V294a.91.91,0,0,0,0-.23,77.23,77.23,0,0,0-148.54-37.23.92.92,0,0,0-.09.23,76.7,76.7,0,0,0-4.17,14.79l-.69-.06V246.24l1.75-2.25v-12.5l-4-18-2,10.25-10-92.5-3-24.5L246,89.47,243,107.1l-3,24.14-11.25,91.25L227,213l-4.25,17.5V241l2,2.5V268L195,265.49l-55.5,3.79V244H120l-14.75-3L68,242.24V231l-10-3H48.25v-5.75L44,220.49H36.5l-.75,6.5v35H18.25v6.4l-96.25-.9-5-4s-26-2-36.5,1.5a13.75,13.75,0,0,0-2.5,1.14v-4.39l-3.75-1.25H-141.5v23.25s-35.25-1-36-1-11.25.5-11.25.5H-202.5v2l-7.25,0v-4.82h-9.5v4.86l-12.25.05V281h-14v4.48l-4.75,0v-5.75l-5.5-7.75v-8l-2-2V246.74h-2.44v14.81l-2.69,2.69v7.63L-269,278v15c-4.59.2-9.84.39-15.5.54,0-13-8.5-15-8.5-15l-49.5-2.23V256h-2.75v-5.5l-3-1.25-11-.75v3h-5l-5-6V241H-371v4.75l-3,1.75-20.25-.5v6.75l-6,2.25v17.66l-13.25-.6V604.49h478S238,516.74,287.25,496.24,420,441.74,435,436.24,515.5,404,522.25,401s13-3.75,7.5-6.25c36.75-8.75,122.5-19.5,198.5-25.25s185.5-13,263-14c70.45-.91,256.18.25,354.55-.1l0,9.59c-18.08-.09-34.92-.32-41.92-.32-14.67,0-2,2.17,11,2.17s67.33.5,72.67.67,4.33,4.67-3.33,4.67-122.5.33-130.67.33,18.83,2,53,2.5,66.83,1.5,73.5,1.5-1.67,7-24.33,7.5-89.5-.17-96.17,0,25.84,2,51.17,1.83,52.16.17,56.66.5-8.67,1.83-3,3.17,44.33,10.33,80.17,12.33,62,8.5,62,8.5V361.15s-32.37.69-62.5,1.53v-8c40.86-.23,62.5-.23,62.5-.23V322.24H1500l-4.52,3.09-4.73-2.05v-7.54h-17.36l-11.64-5.05V306l-5.25-2h-10v.08l-72.81-31.6-.4-24.2,133,56.67.2-.46v-.54l-133.23-56.76-.11-6.51,133.14,56.78.2-.46v-.54l-133.35-56.87-.43-25.74,133.59,55.45.19-.46v-.54l-133.8-55.54-.09-5.29,133.69,55.66.19-.46v-.54l-133.9-55.75ZM290.44,232.86v1.06a1,1,0,0,0,1,1h2.38a1,1,0,0,0,1-1v-4.29a.93.93,0,0,0-.21-.56c1.05-.91,2.13-1.79,3.23-2.64l36.09,49.65-47.09-34.22a.9.9,0,0,0,0-.19v-4.29a.93.93,0,0,0-.12-.44Q288.48,234.83,290.44,232.86Zm-13.6,18.79a.9.9,0,0,0,.18,0h2.38a1,1,0,0,0,1-1v-4.29a.94.94,0,0,0-.24-.61q1.2-1.91,2.5-3.73a1,1,0,0,0,.84.52h2.38a.94.94,0,0,0,.83-.51l45.17,36.57-56.76-21.79a.93.93,0,0,0-.38-.64Q275.69,253.9,276.83,251.64Zm11.5,21.84L272,272v-3.6a1,1,0,0,0-1-1H271c.43-1.78.93-3.52,1.49-5.24h1.66a1,1,0,0,0,1-1V257l55.47,24.69-42.19-4.44Zm.07,4.89L330.14,285l-41.56,6.58ZM292.11,302l-3.44-4.69-.07-4.65,42-4.42-35.12,15.63Zm28.39-2-13,5.5L301,307l-4.09-2.29,34.92-13.41L321.08,300Zm4.87.07,8.47-6.16-4.52,6.21Zm10.3-2.12-.87,2.26-1.8,0,2.67-3.3Zm-37.84-71.57q1-.73,1.93-1.43v2.17a1,1,0,0,0,1,1h2.38a1,1,0,0,0,1-1v-4.29a.94.94,0,0,0-.23-.6q2.76-1.72,5.69-3.19v2a1,1,0,0,0,1,1h2.38a1,1,0,0,0,1-1v-4l.65-.28,22,57.32Zm16.7-9.65c1.89-.78,3.83-1.48,5.79-2.1V217a1,1,0,0,0,1,1h2.38a1,1,0,0,0,1-1v-3.59q3.39-.85,6.9-1.39v3.36a1,1,0,0,0,1,1h1.09l5.95,56.5Zm28.12,55-8.77-55.39h1a1,1,0,0,0,1-1v-3.89c2.29-.22,4.61-.35,7-.35h.13v3a1,1,0,0,0,1,1h2.38a1,1,0,0,0,1-1v-2.91q2.61.16,5.18.5l-9.46,59.77Zm3.77-2.68,6-57.25c.63.08,1.25.18,1.88.28v3.43a1,1,0,0,0,1,1h2.38a1,1,0,0,0,1-1v-2.63q3.39.74,6.66,1.78s0,0,0,.06V219a1,1,0,0,0,1,1h2.38a1,1,0,0,0,1-1v-2.83l1.44.57-22.68,51Zm9.42-6.7-3.12,2.22,18.35-47.79q2.36,1,4.63,2.12a.94.94,0,0,0-.07.33v4.33a1,1,0,0,0,1,1H379a1,1,0,0,0,1-1v-2.34q2.8,1.64,5.44,3.51a.94.94,0,0,0-.47.8v4.24l-27.38,33.83Zm3.81,2.77L385,230.17a1,1,0,0,0,.87.57h2.38a1,1,0,0,0,1-1v-2.2q2.55,2.07,4.9,4.35a1,1,0,0,0-.57.87v4.29a1,1,0,0,0,1,1h2.38a1,1,0,0,0,1-1v-1.28c1.2,1.35,2.36,2.73,3.47,4.17l-38.11,27.69Zm5.7,4.14,36-29.17.25.33a.94.94,0,0,0-.81.92v4.29a1,1,0,0,0,1,1h2.38a1,1,0,0,0,1-1v-.21q1.3,2,2.47,4.18a.94.94,0,0,0-.82.93v4.29a1,1,0,0,0,1,1h2.38a.92.92,0,0,0,.45-.13c.15.35.31.7.46,1.05l-41.17,15.81ZM411,256.76c.47,1.12.89,2.27,1.3,3.42h-.5a1,1,0,0,0-1,1v4.29a1,1,0,0,0,1,1h2.4q.61,2.34,1.06,4.75h-.46a1,1,0,0,0-1,1v3.46l-36.37,3.83v-.2H379l-7-5.05ZM377.5,300.81v-.37l1,.38Zm36.64,3.11a.94.94,0,0,0-.7.9v1.11L390,301l-6.67-.1-5.83-2.59v-7.67l37.75,4v3.69a.94.94,0,0,0,.07.36Q414.82,301.32,414.14,303.91Zm2-10.85a1,1,0,0,0-.91.94v.46l-37.75-6v-7l36.38-5.76v.63a1,1,0,0,0,1,1h1.37q.23,2.17.33,4.37h-.46a1,1,0,0,0-1,1v4.29a1,1,0,0,0,1,1h.48C416.48,289.62,416.35,291.34,416.16,293.06Zm743.52,29.18H1147l-3.75,2v-1.29l16.54-6.82Zm.14-7.2-16.56,6.83v-7.13L1142,311h-4v2.5h-1.25v5.25h-10v-8.41l33.42-14.17Zm.38-20-33.44,14.18v-8.7l33.61-14.67Zm185.75,28.17h-3.44l-2-2h-13.21L1346,314.6Zm0-9.7-20.23,7.19v-7.3l20.27-7.31Zm0-8.49-20.27,7.31V301.49h-27l-1.25,8.25H1290v12.75l-3.87-.12-1.62-1.62h-14.25V323h-5v3l-19.25-1.5-4.38-2,104.51-40.66Zm.11-24.27L1239,322.46,1225.25,324l-2.25,2.25h-7.5l-1.62-2.08,132.29-52.36Zm0-10.06L1211.59,324H1207l-3.5,2v-8h-5v8l-1.5-1.75h-19.5l-.63.9-.24-6.93,169.64-68.85Zm.1-22.44-169.68,68.86-.27-7.83,170-70.07Zm0-10.13-170,70.09-.65-18.64,170.78-72.4Zm.1-22-170.82,72.42-.32-9.17,171.19-74.7Zm4.44-11.36,11.29,4.69L1351,214.17Zm.51,34.17,8.75,3.73-8.64,3.51Zm.49,33.22,7.71,3.4-7.61,3Zm.5,33.75,3.14,1.36v2.89l-3.06,1.09Zm.09,6.39,3-1.08v4h-3Zm15.3,52.7c-4.73,0-9.62,0-14.51,0l-.14-9.64,14.67-.09Zm.09-60H1355.5v1.19l-3.16-1.36-.37-25.23,8.89-3.46,7,3.1Zm0-26.86-5.71-2.52,5.71-2.22Zm0-5.81-7,2.73-9-4-.35-23.81,9.93-4,6.52,2.78Zm0-27.41-5.21-2.22,5.22-2.12Zm0-5.42-6.52,2.64-10.07-4.29-.34-22.58,12.43-5.27,4.54,1.88Zm0-28.7-3.25-1.35,3.25-1.38Zm122.77,113.58,2.59,1.12h-2.59Zm-31.25-9.13h2.25v-3.46l9.12,4h-2.37v3.5h-7.36l-1.64-.72Zm-85.65-33.39,64.4,28.39v14.25H1422l-1.25-2.25H1412V320h-5.59l-32.18-14.88Zm5.9,39.39v-3.5l15.25,6.58v.17h-8.25v-3.25Zm0-4.59v-7.89L1404,320h-2.53v2H1395v1.24Zm-5.5-10.43,4.37,2h-4.34Zm51.5,57c-11.7.37-21.72.75-27.42,1.1s-13.9.54-23.1.63l-.16-9.73q28.23-.24,50.68-.38Zm14-.42-9.75.29V354.8l9.75-.06Zm6.75-57.64v1.58l-8.25,1.75v.66l-64.42-28.4-.12-7.18Z"/></clipPath></defs><title>Skyline_Vector</title><g id="Background"><g class="cls-2"><line class="cls-3" x1="1506.5" y1="499.51" x2="-413.5" y2="499.51"/><line class="cls-3" x1="1506.5" y1="489.51" x2="-413.5" y2="489.51"/><line class="cls-3" x1="1506.5" y1="479.51" x2="-413.5" y2="479.51"/><line class="cls-3" x1="1506.5" y1="469.51" x2="-413.5" y2="469.51"/><line class="cls-3" x1="1506.5" y1="459.51" x2="-413.5" y2="459.51"/><line class="cls-3" x1="1506.5" y1="449.51" x2="-413.5" y2="449.51"/><line class="cls-3" x1="1506.5" y1="439.51" x2="-413.5" y2="439.51"/><line class="cls-3" x1="1506.5" y1="429.51" x2="-413.5" y2="429.51"/><line class="cls-3" x1="1506.5" y1="419.51" x2="-413.5" y2="419.51"/><line class="cls-3" x1="1506.5" y1="409.51" x2="-413.5" y2="409.51"/><line class="cls-3" x1="1506.5" y1="399.51" x2="-413.5" y2="399.51"/><line class="cls-3" x1="1506.5" y1="389.51" x2="-413.5" y2="389.51"/><line class="cls-3" x1="1506.5" y1="379.51" x2="-413.5" y2="379.51"/><line class="cls-3" x1="1506.5" y1="369.51" x2="-413.5" y2="369.51"/><line class="cls-3" x1="1506.5" y1="359.51" x2="-413.5" y2="359.51"/><line class="cls-3" x1="1506.5" y1="349.51" x2="-413.5" y2="349.51"/><line class="cls-4" x1="-413.5" y1="4.49" x2="1508.5" y2="4.49"/><line class="cls-4" x1="-413.5" y1="24.49" x2="1508.5" y2="24.49"/><line class="cls-4" x1="-413.5" y1="44.49" x2="1508.5" y2="44.49"/><line class="cls-4" x1="-413.5" y1="64.49" x2="1508.5" y2="64.49"/><line class="cls-4" x1="-413.5" y1="84.49" x2="1508.5" y2="84.49"/><line class="cls-4" x1="-413.5" y1="104.49" x2="1508.5" y2="104.49"/><line class="cls-4" x1="-413.5" y1="124.49" x2="1508.5" y2="124.49"/><line class="cls-4" x1="-413.5" y1="144.49" x2="1508.5" y2="144.49"/><line class="cls-4" x1="-413.5" y1="164.49" x2="1508.5" y2="164.49"/><line class="cls-4" x1="-413.5" y1="184.49" x2="1508.5" y2="184.49"/><line class="cls-4" x1="-413.5" y1="204.49" x2="1508.5" y2="204.49"/><line class="cls-4" x1="-413.5" y1="224.49" x2="1508.5" y2="224.49"/><line class="cls-4" x1="-413.5" y1="244.49" x2="1508.5" y2="244.49"/><line class="cls-4" x1="-413.5" y1="264.49" x2="1508.5" y2="264.49"/><line class="cls-4" x1="-413.5" y1="284.49" x2="1508.5" y2="284.49"/><line class="cls-4" x1="-413.5" y1="304.49" x2="1508.5" y2="304.49"/><line class="cls-4" x1="-413.5" y1="324.49" x2="1508.5" y2="324.49"/><line class="cls-4" x1="-413.5" y1="344.49" x2="1508.5" y2="344.49"/><g class="cls-5"><rect class="cls-6" x="-413.5" y="-475.51" width="1920" height="1078.29"/><line class="cls-7" x1="-413.5" y1="82.78" x2="1506.5" y2="82.78"/><line class="cls-7" x1="-413.5" y1="87.78" x2="1506.5" y2="87.78"/><line class="cls-7" x1="-413.5" y1="92.78" x2="1506.5" y2="92.78"/><line class="cls-7" x1="-413.5" y1="97.78" x2="1506.5" y2="97.78"/><line class="cls-7" x1="-413.5" y1="102.78" x2="1506.5" y2="102.78"/><line class="cls-7" x1="-413.5" y1="107.78" x2="1506.5" y2="107.78"/><line class="cls-7" x1="-413.5" y1="112.78" x2="1506.5" y2="112.78"/><line class="cls-7" x1="-413.5" y1="117.78" x2="1506.5" y2="117.78"/><line class="cls-7" x1="-413.5" y1="122.78" x2="1506.5" y2="122.78"/><line class="cls-7" x1="-413.5" y1="127.78" x2="1506.5" y2="127.78"/><line class="cls-7" x1="-413.5" y1="132.78" x2="1506.5" y2="132.78"/><line class="cls-7" x1="-413.5" y1="137.78" x2="1506.5" y2="137.78"/><line class="cls-7" x1="-413.5" y1="142.78" x2="1506.5" y2="142.78"/><line class="cls-7" x1="-413.5" y1="147.78" x2="1506.5" y2="147.78"/><line class="cls-7" x1="-413.5" y1="152.78" x2="1506.5" y2="152.78"/><line class="cls-7" x1="-413.5" y1="157.78" x2="1506.5" y2="157.78"/><line class="cls-7" x1="-413.5" y1="162.78" x2="1506.5" y2="162.78"/><line class="cls-7" x1="-413.5" y1="167.78" x2="1506.5" y2="167.78"/><line class="cls-7" x1="-413.5" y1="172.78" x2="1506.5" y2="172.78"/><line class="cls-7" x1="-413.5" y1="177.78" x2="1506.5" y2="177.78"/><line class="cls-7" x1="-413.5" y1="182.78" x2="1506.5" y2="182.78"/><line class="cls-7" x1="-413.5" y1="187.78" x2="1506.5" y2="187.78"/><line class="cls-7" x1="-413.5" y1="192.78" x2="1506.5" y2="192.78"/><line class="cls-7" x1="-413.5" y1="197.78" x2="1506.5" y2="197.78"/><line class="cls-7" x1="-413.5" y1="202.78" x2="1506.5" y2="202.78"/><line class="cls-7" x1="-413.5" y1="207.78" x2="1506.5" y2="207.78"/><line class="cls-7" x1="-413.5" y1="212.78" x2="1506.5" y2="212.78"/><line class="cls-7" x1="-413.5" y1="217.78" x2="1506.5" y2="217.78"/><line class="cls-7" x1="-413.5" y1="222.78" x2="1506.5" y2="222.78"/><line class="cls-7" x1="-413.5" y1="227.78" x2="1506.5" y2="227.78"/><line class="cls-7" x1="-413.5" y1="232.78" x2="1506.5" y2="232.78"/><line class="cls-7" x1="-413.5" y1="237.78" x2="1506.5" y2="237.78"/><line class="cls-7" x1="-413.5" y1="242.78" x2="1506.5" y2="242.78"/><line class="cls-7" x1="-413.5" y1="247.78" x2="1506.5" y2="247.78"/><line class="cls-7" x1="-413.5" y1="252.78" x2="1506.5" y2="252.78"/><line class="cls-7" x1="-413.5" y1="257.78" x2="1506.5" y2="257.78"/><line class="cls-7" x1="-413.5" y1="262.78" x2="1506.5" y2="262.78"/><line class="cls-7" x1="-413.5" y1="267.78" x2="1506.5" y2="267.78"/><line class="cls-7" x1="-413.5" y1="272.78" x2="1506.5" y2="272.78"/><line class="cls-7" x1="-413.5" y1="277.78" x2="1506.5" y2="277.78"/><line class="cls-7" x1="-413.5" y1="282.78" x2="1506.5" y2="282.78"/><line class="cls-7" x1="-413.5" y1="287.78" x2="1506.5" y2="287.78"/><line class="cls-7" x1="-413.5" y1="292.78" x2="1506.5" y2="292.78"/><line class="cls-7" x1="-413.5" y1="297.78" x2="1506.5" y2="297.78"/><line class="cls-7" x1="-413.5" y1="302.78" x2="1506.5" y2="302.78"/><line class="cls-7" x1="-413.5" y1="307.78" x2="1506.5" y2="307.78"/><line class="cls-7" x1="-413.5" y1="312.78" x2="1506.5" y2="312.78"/><line class="cls-7" x1="-413.5" y1="317.78" x2="1506.5" y2="317.78"/><line class="cls-7" x1="-413.5" y1="322.78" x2="1506.5" y2="322.78"/><line class="cls-7" x1="-413.5" y1="327.78" x2="1506.5" y2="327.78"/><line class="cls-7" x1="-413.5" y1="332.78" x2="1506.5" y2="332.78"/><line class="cls-7" x1="-413.5" y1="337.78" x2="1506.5" y2="337.78"/><line class="cls-7" x1="-413.5" y1="342.78" x2="1506.5" y2="342.78"/><line class="cls-7" x1="-413.5" y1="347.78" x2="1506.5" y2="347.78"/><line class="cls-7" x1="-413.5" y1="352.78" x2="1506.5" y2="352.78"/><line class="cls-7" x1="-413.5" y1="357.78" x2="1506.5" y2="357.78"/><line class="cls-7" x1="-413.5" y1="362.78" x2="1506.5" y2="362.78"/><line class="cls-7" x1="-413.5" y1="367.78" x2="1506.5" y2="367.78"/><line class="cls-7" x1="-413.5" y1="372.78" x2="1506.5" y2="372.78"/><line class="cls-7" x1="-413.5" y1="377.78" x2="1506.5" y2="377.78"/><line class="cls-7" x1="-413.5" y1="382.78" x2="1506.5" y2="382.78"/><line class="cls-7" x1="-413.5" y1="387.78" x2="1506.5" y2="387.78"/><line class="cls-7" x1="-413.5" y1="392.78" x2="1506.5" y2="392.78"/><line class="cls-7" x1="-413.5" y1="397.78" x2="1506.5" y2="397.78"/><line class="cls-7" x1="-413.5" y1="402.78" x2="1506.5" y2="402.78"/><line class="cls-7" x1="-413.5" y1="407.78" x2="1506.5" y2="407.78"/><line class="cls-7" x1="-413.5" y1="412.78" x2="1506.5" y2="412.78"/><line class="cls-7" x1="-413.5" y1="417.78" x2="1506.5" y2="417.78"/><line class="cls-7" x1="-413.5" y1="422.78" x2="1506.5" y2="422.78"/><line class="cls-7" x1="-413.5" y1="427.78" x2="1506.5" y2="427.78"/><line class="cls-7" x1="-413.5" y1="432.78" x2="1506.5" y2="432.78"/><line class="cls-7" x1="-413.5" y1="437.78" x2="1506.5" y2="437.78"/><line class="cls-7" x1="-413.5" y1="442.78" x2="1506.5" y2="442.78"/><line class="cls-7" x1="-413.5" y1="447.78" x2="1506.5" y2="447.78"/><line class="cls-7" x1="-413.5" y1="452.78" x2="1506.5" y2="452.78"/><line class="cls-7" x1="-413.5" y1="457.78" x2="1506.5" y2="457.78"/><line class="cls-7" x1="-413.5" y1="462.78" x2="1506.5" y2="462.78"/><line class="cls-7" x1="-413.5" y1="467.78" x2="1506.5" y2="467.78"/><line class="cls-7" x1="-413.5" y1="472.78" x2="1506.5" y2="472.78"/><line class="cls-7" x1="-413.5" y1="477.78" x2="1506.5" y2="477.78"/><line class="cls-7" x1="-413.5" y1="482.78" x2="1506.5" y2="482.78"/><line class="cls-7" x1="-413.5" y1="487.78" x2="1506.5" y2="487.78"/><line class="cls-7" x1="-413.5" y1="492.78" x2="1506.5" y2="492.78"/><line class="cls-7" x1="-413.5" y1="497.78" x2="1506.5" y2="497.78"/></g></g></g></svg>