<svg xmlns="http://www.w3.org/2000/svg" viewBox="0 0 570 150"><defs><style>.cls-1{fill:#0f6685;}.cls-2{fill:#fff;}.cls-3{fill:#d9423d;}</style></defs><title>WEM_Logo-Complete</title><g id="Elements"><rect class="cls-1" x="14" y="15" width="55.07" height="55.07" rx="6.81" ry="6.81"/><path class="cls-2" d="M30.83,59l-1-14.68h3.25l.17,10.43h.16l4.48-10.43h2.54l.85,10.43h.16l3.91-10.43H48.6L42.4,59h-3l-1-9.67h-.14L33.87,59Z"/><rect class="cls-1" x="80.08" y="15" width="55.07" height="55.07" rx="6.81" ry="6.81"/><path class="cls-2" d="M105.24,59H95.69l2.58-14.68h9.53L107.35,47H101l-.62,3.39h6L106,52.77h-6l-.67,3.58h6.43Z"/><rect class="cls-3" x="96.6" y="81.08" width="55.07" height="55.07" rx="6.81" ry="6.81"/><path class="cls-2" d="M119.92,110.4c3.73,0,5.76,2.37,5.76,5.78a10,10,0,0,1-.1,1.43c0,.24-.22,1.27-.27,1.5-.77,3.72-3.56,6-8,6h-5.11l2.58-14.68Zm-4.13,12h1.29c2.55,0,4.51-1.1,5.08-3.66,0-.18.23-1.11.25-1.33a10.55,10.55,0,0,0,.06-1.12c0-2.33-1.45-3.28-3.57-3.28h-1.42Z"/><path class="cls-1" d="M185.82,25.8h4.93l8.15,24.68L206.8,25.9h6.11L201.35,59.29h-5l-8.15-23.82L180,59.29h-5L163.46,25.9h6.3l7.91,24.58Z"/><path class="cls-1" d="M226.09,54.93a9.08,9.08,0,0,0,6.77-3l3.36,3A12.65,12.65,0,0,1,226,59.62c-7.25,0-12.84-5.26-12.84-13,0-7.2,5.07-13.07,12.22-13.07,8,0,12,6.25,12,13.5,0,.52,0,1-.09,1.56H218.89C219.55,52.66,222.39,54.93,226.09,54.93Zm5.59-10.14c-.38-3.69-2.56-6.58-6.35-6.58-3.5,0-6,2.7-6.49,6.58Z"/><path class="cls-1" d="M256,59.57a10.19,10.19,0,0,1-8.48-4.4v3.88h-5.73V24.48h5.73V38.21A10,10,0,0,1,256,33.52c5.92,0,11.65,4.69,11.65,13S261.94,59.57,256,59.57ZM254.65,38.5c-3.88,0-7.29,3.17-7.29,8.05s3.41,8.05,7.29,8.05,7.15-3.08,7.15-8.05S258.53,38.5,254.65,38.5Z"/><path class="cls-1" d="M311.05,31.11H292.29v8.62h16.62v5.21H292.29v8.9h19v5.21H286.47V25.9h24.58Z"/><path class="cls-1" d="M321.92,59.05h-5.73V34h5.73v3.88a9,9,0,0,1,7.81-4.4c5.64,0,8.9,3.79,8.9,9.61V59.05H332.9V44.84c0-3.88-1.94-6.11-5.35-6.11s-5.64,2.32-5.64,6.21Z"/><path class="cls-1" d="M355.2,66.72a21.54,21.54,0,0,1-11.18-3l2.13-4.31a16.28,16.28,0,0,0,8.9,2.65c5.12,0,7.91-2.65,7.91-7.67V52.47c-2.08,2.7-4.69,4.59-8.81,4.59-5.87,0-11.37-4.31-11.37-11.75s5.54-11.79,11.37-11.79a10.79,10.79,0,0,1,8.76,4.26V34h5.73V53.94C368.65,62.79,363.82,66.72,355.2,66.72Zm.47-28.37a6.94,6.94,0,1,0,0,13.88c4,0,7.34-2.79,7.34-6.92S359.66,38.35,355.68,38.35Z"/><path class="cls-1" d="M374.38,30.21V24.76h6.16v5.45Zm.24,28.84V34h5.73v25Z"/><path class="cls-1" d="M392,59.05h-5.73V34H392v3.88a9,9,0,0,1,7.81-4.4c5.64,0,8.9,3.79,8.9,9.61V59.05H403V44.84c0-3.88-1.94-6.11-5.35-6.11S392,41.05,392,44.94Z"/><path class="cls-1" d="M425.83,54.93a9.08,9.08,0,0,0,6.77-3l3.36,3a12.65,12.65,0,0,1-10.23,4.69c-7.25,0-12.84-5.26-12.84-13,0-7.2,5.07-13.07,12.22-13.07,8,0,12,6.25,12,13.5,0,.52,0,1-.09,1.56H418.63C419.29,52.66,422.13,54.93,425.83,54.93Zm5.59-10.14c-.38-3.69-2.56-6.58-6.35-6.58-3.5,0-6,2.7-6.49,6.58Z"/><path class="cls-1" d="M452.95,54.93a9.09,9.09,0,0,0,6.77-3l3.36,3a12.65,12.65,0,0,1-10.23,4.69c-7.25,0-12.83-5.26-12.83-13,0-7.2,5.07-13.07,12.22-13.07,8,0,12,6.25,12,13.5,0,.52,0,1-.09,1.56H445.75C446.41,52.66,449.25,54.93,452.95,54.93Zm5.59-10.14c-.38-3.69-2.56-6.58-6.35-6.58-3.5,0-6,2.7-6.49,6.58Z"/><path class="cls-1" d="M474.35,59.05h-5.73V34h5.73v5.64c1.56-3.74,4.45-6.3,8.86-6.11v6.06h-.33c-5,0-8.53,3.27-8.53,9.9Z"/><path class="cls-1" d="M486.29,30.21V24.76h6.16v5.45Zm.24,28.84V34h5.73v25Z"/><path class="cls-1" d="M503.88,59.05h-5.73V34h5.73v3.88a9,9,0,0,1,7.82-4.4c5.64,0,8.9,3.79,8.9,9.61V59.05h-5.73V44.84c0-3.88-1.94-6.11-5.35-6.11s-5.64,2.32-5.64,6.21Z"/><path class="cls-1" d="M537.17,66.72a21.54,21.54,0,0,1-11.18-3l2.13-4.31a16.28,16.28,0,0,0,8.9,2.65c5.12,0,7.91-2.65,7.91-7.67V52.47c-2.08,2.7-4.69,4.59-8.81,4.59-5.87,0-11.37-4.31-11.37-11.75s5.54-11.79,11.37-11.79a10.79,10.79,0,0,1,8.76,4.26V34h5.73V53.94C550.62,62.79,545.79,66.72,537.17,66.72Zm.47-28.37a6.94,6.94,0,1,0,0,13.88c4,0,7.34-2.79,7.34-6.92S541.63,38.35,537.65,38.35Z"/><path class="cls-3" d="M193.69,125.27h-11V92.12h11c10.42,0,17.62,7.15,17.62,16.48v.09C211.31,118,204.11,125.27,193.69,125.27Zm15.06-16.58c0-7.86-5.83-14.3-15.06-14.3h-8.57V123h8.57c9.24,0,15.06-6.3,15.06-14.21Z"/><path class="cls-3" d="M235.78,125.27v-4.5a9.46,9.46,0,0,1-8.71,5.07c-6.11,0-9.66-4.17-9.66-9.95V101.12h2.32v14.35c0,5,2.79,8.24,7.67,8.24a8.28,8.28,0,0,0,8.38-8.62v-14h2.32v24.16ZM222.57,97.09V93.3h3.27v3.79Zm7.72,0V93.3h3.27v3.79Z"/><path class="cls-3" d="M252.85,125.75a16.54,16.54,0,0,1-9.9-3.5l1.37-1.85a14.17,14.17,0,0,0,8.67,3.17c3.27,0,5.83-1.8,5.83-4.59v-.09c0-2.84-3-3.88-6.39-4.83-3.93-1.14-8.29-2.32-8.29-6.63v-.09c0-3.88,3.27-6.68,8-6.68a16.31,16.31,0,0,1,8.57,2.65l-1.23,1.94a13.87,13.87,0,0,0-7.44-2.42c-3.32,0-5.49,1.8-5.49,4.21v.1c0,2.7,3.27,3.69,6.73,4.69,3.88,1.09,8,2.51,8,6.77v.1C261.19,123,257.49,125.75,252.85,125.75Z"/><path class="cls-3" d="M274.58,125.75a16.54,16.54,0,0,1-9.9-3.5l1.37-1.85a14.17,14.17,0,0,0,8.67,3.17c3.27,0,5.83-1.8,5.83-4.59v-.09c0-2.84-3-3.88-6.39-4.83-3.93-1.14-8.29-2.32-8.29-6.63v-.09c0-3.88,3.27-6.68,8-6.68a16.31,16.31,0,0,1,8.57,2.65l-1.23,1.94a13.87,13.87,0,0,0-7.44-2.42c-3.32,0-5.49,1.8-5.49,4.21v.1c0,2.7,3.27,3.69,6.73,4.69,3.88,1.09,8,2.51,8,6.77v.1C282.92,123,279.22,125.75,274.58,125.75Z"/><path class="cls-3" d="M298.6,123.66a10.85,10.85,0,0,0,8.29-3.79l1.61,1.42a12.7,12.7,0,0,1-10,4.55c-6.35,0-11.84-5.07-11.84-12.6v-.09c0-7,4.93-12.6,11.46-12.6,6.77,0,11.08,5.49,11.08,12.65v.09a5.45,5.45,0,0,1,0,.85h-20C289.55,120.16,293.86,123.66,298.6,123.66Zm8.1-11.6c-.33-4.88-3.13-9.38-8.67-9.38-4.78,0-8.48,4-8.9,9.38Z"/><path class="cls-3" d="M314.78,125.27V90.7h2.32v34.58Z"/><path class="cls-3" d="M344.54,125.27v-5.4c-2.08,3.17-5.16,6-9.95,6-5.83,0-11.75-4.69-11.75-12.55v-.09c0-7.86,5.92-12.65,11.75-12.65,4.83,0,8,2.75,9.95,5.78V90.7h2.32v34.58Zm.14-12.12a10.09,10.09,0,0,0-9.85-10.37c-5.26,0-9.47,3.84-9.47,10.32v.1c0,6.35,4.4,10.42,9.47,10.42a10.12,10.12,0,0,0,9.85-10.37Z"/><path class="cls-3" d="M364.78,125.84a12.35,12.35,0,0,1-12.36-12.55v-.09a12.48,12.48,0,0,1,12.46-12.65,12.35,12.35,0,0,1,12.36,12.55v.1A12.48,12.48,0,0,1,364.78,125.84Zm9.95-12.65c0-5.83-4.36-10.47-9.95-10.47s-9.85,4.69-9.85,10.37v.1c0,5.83,4.36,10.47,9.95,10.47s9.85-4.69,9.85-10.37Z"/><path class="cls-3" d="M395.58,103.3c-5.59,0-10.47,4.22-10.47,12.08v9.9H382.8V101.12h2.32V108c1.89-4.31,5.92-7.44,10.7-7.25v2.56Z"/><path class="cls-3" d="M409.63,92.69c-3.32,0-4.88,2-4.88,6.11v2.32h8.43v2.13h-8.43v22h-2.32v-22h-3.5v-2.13h3.5V98.75c0-5.21,2.65-8.19,7.2-8.19a10.25,10.25,0,0,1,3.6.57V93.3A11.26,11.26,0,0,0,409.63,92.69Z"/></g></svg>