<svg xmlns="http://www.w3.org/2000/svg" viewBox="0 0 170 150"><defs><style>.cls-1{fill:#0f6685;}.cls-2{fill:#fff;}.cls-3{fill:#d9423d;}</style></defs><title>WEM_Logo-Icon</title><g id="Elements"><rect class="cls-1" x="12" y="12" width="57.73" height="57.73" rx="6.81" ry="6.81"/><path class="cls-2" d="M29.64,58.13,28.58,42.74H32l.18,10.94h.17L37,42.74h2.66l.89,10.94h.17l4.09-10.94h3.43l-6.5,15.39H38.64L37.59,48h-.15L32.83,58.13Z"/><rect class="cls-1" x="81.27" y="12" width="57.73" height="57.73" rx="6.81" ry="6.81"/><path class="cls-2" d="M107.64,58.13h-10l2.71-15.39h10l-.47,2.77h-6.71l-.65,3.55h6.34l-.43,2.54h-6.34l-.7,3.75h6.74Z"/><rect class="cls-3" x="98.59" y="81.27" width="57.73" height="57.73" rx="6.81" ry="6.81"/><path class="cls-2" d="M123,112c3.91,0,6,2.48,6,6.06a10.51,10.51,0,0,1-.1,1.5c0,.25-.23,1.33-.28,1.57-.81,3.9-3.73,6.27-8.37,6.27H115L117.67,112Zm-4.33,12.62h1.35c2.67,0,4.72-1.15,5.32-3.83,0-.19.24-1.16.26-1.4a11.1,11.1,0,0,0,.07-1.17c0-2.45-1.52-3.44-3.74-3.44h-1.49Z"/></g></svg>